<mxfile host="app.diagrams.net" agent="Mozilla/5.0 (Windows NT 10.0; Win64; x64) AppleWebKit/537.36 (KHTML, like Gecko) Chrome/126.0.0.0 YaBrowser/24.7.0.0 Safari/537.36" version="24.8.1">
  <diagram name="Страница — 1" id="2cmnPprDYmq8RlvPUd68">
    <mxGraphModel dx="1205" dy="688" grid="1" gridSize="10" guides="1" tooltips="1" connect="1" arrows="1" fold="1" page="1" pageScale="1" pageWidth="827" pageHeight="1169" math="0" shadow="0">
      <root>
        <mxCell id="0" />
        <mxCell id="1" parent="0" />
        <mxCell id="3sdHxqBXZNEpG7V6tx6w-4" value="БАНК" style="swimlane;startSize=20;" vertex="1" parent="1">
          <mxGeometry x="215" y="180" width="397" height="460" as="geometry">
            <mxRectangle x="215" y="180" width="50" height="40" as="alternateBounds" />
          </mxGeometry>
        </mxCell>
        <mxCell id="3sdHxqBXZNEpG7V6tx6w-6" value="открытие кассы" style="ellipse;whiteSpace=wrap;html=1;" vertex="1" parent="3sdHxqBXZNEpG7V6tx6w-4">
          <mxGeometry x="65" y="90" width="120" height="80" as="geometry" />
        </mxCell>
        <mxCell id="3sdHxqBXZNEpG7V6tx6w-12" value="внесение определённой суммы" style="ellipse;whiteSpace=wrap;html=1;" vertex="1" parent="3sdHxqBXZNEpG7V6tx6w-4">
          <mxGeometry x="65" y="220" width="120" height="80" as="geometry" />
        </mxCell>
        <mxCell id="3sdHxqBXZNEpG7V6tx6w-14" value="вывод средств" style="ellipse;whiteSpace=wrap;html=1;" vertex="1" parent="3sdHxqBXZNEpG7V6tx6w-4">
          <mxGeometry x="65" y="340" width="120" height="80" as="geometry" />
        </mxCell>
        <mxCell id="3sdHxqBXZNEpG7V6tx6w-15" value="обновление баланса&amp;nbsp;" style="ellipse;whiteSpace=wrap;html=1;" vertex="1" parent="3sdHxqBXZNEpG7V6tx6w-4">
          <mxGeometry x="245" y="290" width="120" height="80" as="geometry" />
        </mxCell>
        <mxCell id="3sdHxqBXZNEpG7V6tx6w-22" value="данные" style="endArrow=classic;html=1;rounded=0;exitX=1;exitY=0.5;exitDx=0;exitDy=0;entryX=0;entryY=0.5;entryDx=0;entryDy=0;verticalAlign=bottom;" edge="1" parent="3sdHxqBXZNEpG7V6tx6w-4" source="3sdHxqBXZNEpG7V6tx6w-12" target="3sdHxqBXZNEpG7V6tx6w-15">
          <mxGeometry x="0.2" y="18" width="50" height="50" relative="1" as="geometry">
            <mxPoint x="235" y="240" as="sourcePoint" />
            <mxPoint x="285" y="190" as="targetPoint" />
            <mxPoint y="-1" as="offset" />
          </mxGeometry>
        </mxCell>
        <mxCell id="3sdHxqBXZNEpG7V6tx6w-23" value="данные" style="endArrow=classic;html=1;rounded=0;exitX=1;exitY=0.5;exitDx=0;exitDy=0;entryX=0;entryY=0.5;entryDx=0;entryDy=0;verticalAlign=top;" edge="1" parent="3sdHxqBXZNEpG7V6tx6w-4" source="3sdHxqBXZNEpG7V6tx6w-14" target="3sdHxqBXZNEpG7V6tx6w-15">
          <mxGeometry x="0.1148" y="-10" width="50" height="50" relative="1" as="geometry">
            <mxPoint x="215" y="370" as="sourcePoint" />
            <mxPoint x="275" y="440" as="targetPoint" />
            <mxPoint as="offset" />
          </mxGeometry>
        </mxCell>
        <mxCell id="3sdHxqBXZNEpG7V6tx6w-7" value="&lt;font style=&quot;font-size: 21px;&quot;&gt;банкир&lt;/font&gt;" style="text;html=1;align=center;verticalAlign=middle;whiteSpace=wrap;rounded=0;" vertex="1" parent="1">
          <mxGeometry x="700" y="290" width="80" height="40" as="geometry" />
        </mxCell>
        <mxCell id="3sdHxqBXZNEpG7V6tx6w-8" value="" style="endArrow=none;html=1;rounded=0;entryX=0;entryY=0.5;entryDx=0;entryDy=0;exitX=1;exitY=0.5;exitDx=0;exitDy=0;" edge="1" parent="1" source="3sdHxqBXZNEpG7V6tx6w-6" target="3sdHxqBXZNEpG7V6tx6w-7">
          <mxGeometry width="50" height="50" relative="1" as="geometry">
            <mxPoint x="480" y="340" as="sourcePoint" />
            <mxPoint x="530" y="290" as="targetPoint" />
          </mxGeometry>
        </mxCell>
        <mxCell id="3sdHxqBXZNEpG7V6tx6w-10" value="&lt;font style=&quot;font-size: 21px;&quot;&gt;клиент&lt;/font&gt;" style="text;html=1;align=center;verticalAlign=middle;whiteSpace=wrap;rounded=0;" vertex="1" parent="1">
          <mxGeometry x="10" y="425" width="90" height="30" as="geometry" />
        </mxCell>
        <mxCell id="3sdHxqBXZNEpG7V6tx6w-11" value="" style="endArrow=none;html=1;rounded=0;entryX=0;entryY=0.5;entryDx=0;entryDy=0;exitX=1;exitY=0.5;exitDx=0;exitDy=0;" edge="1" parent="1" source="3sdHxqBXZNEpG7V6tx6w-10" target="3sdHxqBXZNEpG7V6tx6w-6">
          <mxGeometry width="50" height="50" relative="1" as="geometry">
            <mxPoint x="130" y="390" as="sourcePoint" />
            <mxPoint x="180" y="340" as="targetPoint" />
          </mxGeometry>
        </mxCell>
        <mxCell id="3sdHxqBXZNEpG7V6tx6w-13" value="" style="endArrow=none;html=1;rounded=0;entryX=0;entryY=0.5;entryDx=0;entryDy=0;exitX=1;exitY=0.5;exitDx=0;exitDy=0;" edge="1" parent="1" source="3sdHxqBXZNEpG7V6tx6w-10" target="3sdHxqBXZNEpG7V6tx6w-12">
          <mxGeometry width="50" height="50" relative="1" as="geometry">
            <mxPoint x="120" y="425" as="sourcePoint" />
            <mxPoint x="290" y="320" as="targetPoint" />
          </mxGeometry>
        </mxCell>
        <mxCell id="3sdHxqBXZNEpG7V6tx6w-16" value="" style="endArrow=none;html=1;rounded=0;entryX=0;entryY=0.5;entryDx=0;entryDy=0;exitX=1;exitY=0.5;exitDx=0;exitDy=0;" edge="1" parent="1" source="3sdHxqBXZNEpG7V6tx6w-10" target="3sdHxqBXZNEpG7V6tx6w-14">
          <mxGeometry width="50" height="50" relative="1" as="geometry">
            <mxPoint x="110" y="450" as="sourcePoint" />
            <mxPoint x="290" y="450" as="targetPoint" />
          </mxGeometry>
        </mxCell>
      </root>
    </mxGraphModel>
  </diagram>
</mxfile>
